<?xml version="1.0" standalone="no"?>
<!DOCTYPE svg PUBLIC "-//W3C//DTD SVG 20010904//EN"
 "http://www.w3.org/TR/2001/REC-SVG-20010904/DTD/svg10.dtd">
<svg version="1.0" xmlns="http://www.w3.org/2000/svg"
 width="293.000000pt" height="134.000000pt" viewBox="0 0 293.000000 134.000000"
 preserveAspectRatio="xMidYMid meet">
<metadata>
Created by potrace 1.16, written by Peter Selinger 2001-2019
</metadata>
<g transform="translate(0.000000,134.000000) scale(0.100000,-0.100000)"
fill="#ffffff" stroke="none">
<path d="M532 1089 c-144 -27 -278 -181 -328 -379 -20 -79 -14 -202 13 -274
35 -93 131 -175 206 -176 15 0 27 -4 27 -8 0 -17 53 -32 114 -32 125 0 250 97
325 252 50 105 66 168 21 89 -48 -86 -78 -120 -132 -149 -28 -15 -73 -47 -101
-71 -50 -43 -118 -80 -147 -81 -8 0 12 13 45 29 135 64 237 217 264 396 5 33
19 108 31 167 l23 106 -22 31 c-23 32 -86 73 -131 86 -23 7 -22 4 11 -31 37
-39 79 -112 79 -136 0 -7 -14 12 -31 42 -38 70 -62 95 -113 119 -52 24 -99 30
-154 20z m112 -20 c55 -15 118 -78 151 -152 24 -53 28 -75 29 -152 0 -151 -54
-287 -153 -385 -159 -158 -352 -136 -434 50 -28 64 -34 206 -13 288 62 245
247 399 420 351z"/>
<path d="M480 1012 c-111 -111 -47 -293 80 -227 62 32 99 149 66 213 -33 64
-91 70 -146 14z m115 -7 c61 -61 0 -215 -86 -215 -80 0 -93 151 -18 215 38 32
73 32 104 0z"/>
<path d="M640 811 c-44 -23 -90 -107 -90 -162 0 -62 24 -107 65 -125 33 -13
39 -13 79 5 110 48 139 238 44 287 -36 19 -56 18 -98 -5z m109 -25 c49 -52 33
-168 -30 -221 -78 -65 -149 -29 -149 76 0 121 114 214 179 145z"/>
<path d="M314 811 c-54 -23 -100 -117 -88 -180 8 -38 49 -81 79 -81 32 0 85
40 107 80 25 45 20 132 -8 160 -23 23 -62 32 -90 21z m74 -31 c43 -40 24 -143
-34 -189 -50 -39 -97 -19 -110 47 -10 47 21 119 60 143 40 24 57 24 84 -1z"/>
<path d="M410 564 c-84 -72 -95 -210 -19 -250 35 -18 43 -18 85 2 65 31 108
142 80 207 -28 69 -92 86 -146 41z m100 -4 c63 -34 36 -186 -40 -225 -40 -21
-57 -19 -85 10 -62 61 -1 225 83 225 13 0 32 -4 42 -10z"/>
<path d="M1054 807 c-3 -8 -4 -52 -2 -98 l3 -84 28 -3 c17 -2 37 4 48 14 18
16 20 16 37 1 21 -19 63 -22 79 -6 8 8 17 8 33 -1 54 -29 131 -5 151 48 l10
26 22 -39 c18 -32 29 -41 54 -43 29 -3 34 1 52 40 l19 43 1 -31 c1 -49 17 -55
132 -52 92 3 104 5 107 22 2 10 -2 29 -9 42 -10 19 -10 31 1 64 21 65 12 69
-151 69 -114 0 -140 -2 -147 -15 -8 -14 -10 -14 -21 0 -15 18 -76 22 -86 6 -4
-7 -12 -7 -25 0 -26 14 -103 13 -118 -2 -9 -9 -15 -9 -24 0 -18 18 -75 15 -87
-5 -9 -17 -10 -17 -28 0 -23 20 -71 23 -79 4z m80 -38 l13 -31 13 31 c10 25
18 31 42 31 20 0 31 -6 36 -21 l8 -20 18 20 c26 29 104 29 134 1 29 -27 30
-92 2 -120 -28 -28 -110 -28 -136 1 l-18 20 -8 -20 c-5 -14 -16 -21 -33 -21
-20 0 -25 5 -25 26 0 22 -2 24 -15 14 -8 -7 -22 -10 -30 -6 -10 4 -15 -1 -15
-14 0 -16 -7 -20 -30 -20 l-30 0 0 80 0 80 30 0 c25 0 33 -6 44 -31z m366 -1
l13 -33 10 33 10 32 68 0 69 0 0 -80 0 -80 -35 0 -35 0 -1 73 0 72 -28 -70
c-26 -63 -32 -70 -59 -73 -25 -3 -31 1 -40 25 -5 15 -19 52 -31 81 l-21 52 34
0 c29 0 36 -5 46 -32z m310 12 c0 -16 -7 -20 -35 -20 -19 0 -35 -4 -35 -10 0
-5 11 -10 25 -10 18 0 25 -5 25 -20 0 -15 -7 -20 -26 -20 -14 0 -23 -4 -19
-10 3 -5 19 -10 34 -10 33 0 42 -7 34 -26 -4 -10 -23 -14 -69 -14 l-64 0 0 80
0 80 65 0 c58 0 65 -2 65 -20z"/>
<path d="M1884 807 c-3 -8 -4 -52 -2 -98 l3 -84 28 -3 c17 -2 37 4 48 14 18
16 20 16 37 1 23 -21 148 -24 155 -4 3 10 9 10 26 0 26 -16 143 -17 158 -2 8
8 13 8 17 0 10 -16 208 -15 224 1 9 9 15 9 24 0 14 -14 85 -16 90 -2 2 6 18 4
42 -4 25 -9 51 -11 74 -5 50 11 58 23 38 53 -13 20 -24 25 -49 24 -26 -3 -33
1 -35 20 -3 23 2 25 49 23 18 -2 28 5 36 22 17 36 -10 57 -71 57 -59 0 -84
-13 -101 -53 l-13 -31 -21 42 c-18 35 -26 42 -51 42 -25 0 -33 -7 -54 -47
l-25 -48 -1 36 c0 20 -6 41 -12 47 -17 13 -145 14 -154 1 -4 -7 -10 -6 -19 1
-8 6 -26 10 -42 8 -26 -3 -28 -7 -33 -53 l-5 -50 -25 50 c-21 43 -30 50 -58
53 -30 3 -34 0 -54 -45 l-22 -48 -5 45 c-6 43 -8 45 -41 48 -24 3 -38 -2 -47
-14 -12 -16 -14 -16 -31 -1 -22 20 -71 22 -78 4z m80 -38 l13 -31 13 32 c11
27 17 31 44 28 31 -3 31 -4 36 -71 l5 -67 29 70 c25 63 31 70 56 70 24 0 31
-8 59 -71 17 -40 31 -76 31 -80 0 -5 -16 -9 -35 -9 -19 0 -35 5 -35 10 0 6 -9
10 -20 10 -11 0 -20 -4 -20 -10 0 -5 -29 -9 -65 -9 -62 1 -65 2 -65 25 0 22
-2 23 -20 12 -17 -11 -22 -10 -30 2 -8 12 -10 9 -10 -12 0 -24 -4 -28 -30 -28
l-30 0 0 80 0 80 30 0 c25 0 33 -6 44 -31z m368 4 l17 -28 1 28 c0 24 4 27 35
27 l35 0 0 -80 0 -80 -27 0 c-18 0 -35 10 -50 28 l-22 27 -1 -27 c0 -24 -4
-28 -30 -28 l-30 0 0 80 0 80 28 0 c19 0 32 -8 44 -27z m159 5 c0 -13 0 -45
-1 -72 -1 -27 2 -46 8 -43 5 4 21 36 36 72 25 58 31 65 56 65 24 0 30 -7 59
-75 17 -41 31 -77 31 -80 0 -3 -16 -5 -35 -5 -19 0 -35 5 -35 10 0 6 -9 10
-20 10 -11 0 -20 -4 -20 -10 0 -6 -30 -10 -70 -10 l-70 0 0 80 0 80 30 0 c24
0 30 -4 31 -22z m337 14 c7 -5 10 -16 6 -26 -5 -13 -14 -17 -35 -12 -18 3 -34
0 -44 -10 -30 -30 -9 -59 42 -59 31 0 38 -4 38 -20 0 -31 -91 -34 -128 -5 -35
28 -38 89 -5 120 23 21 100 28 126 12z"/>
</g>
</svg>
